<?xml version="1.0" encoding="iso-8859-1"?>
<!-- Uploaded to: SVG Repo, www.svgrepo.com, Generator: SVG Repo Mixer Tools -->
<svg height="800px" width="800px" version="1.1" id="Layer_1" xmlns="http://www.w3.org/2000/svg" xmlns:xlink="http://www.w3.org/1999/xlink" 
	 viewBox="0 0 512 512" xml:space="preserve">
<path style="fill:#FF0536;" d="M408.809,33.942C386.92,12.054,357.82,0,326.867,0C300.884,0,276.202,8.496,256,24.172
	C235.799,8.496,211.119,0,185.133,0c-30.95,0-60.055,12.055-81.939,33.941c-21.642,21.642-33.662,50.337-33.929,80.9l-0.013-0.006
	v1.023v0.065v84.906v82.914c0,30.952,12.054,60.051,33.942,81.938l141.733,141.732C247.985,510.47,251.994,512,256,512
	c4.009,0,8.016-1.53,11.074-4.588L408.808,365.68c21.886-21.886,33.94-50.986,33.94-81.938v-82.914v-84.948v-0.023
	c0-0.002,0-0.004,0-0.007C442.74,84.909,430.689,55.821,408.809,33.942z"/>
<path style="fill:#FFE470;" d="M256,350.627L103.192,197.822c-21.876-21.877-33.927-50.961-33.94-81.898v84.906
	c0,30.954,12.054,60.052,33.94,81.939L256,435.575l152.808-152.808c21.886-21.887,33.94-50.987,33.94-81.939v-84.948
	c0,30.953-12.054,60.054-33.94,81.94L256,350.627z"/>
<path style="fill:#715539;" d="M256,212.71c-33.728,0-61.167-27.44-61.167-61.169S222.272,90.373,256,90.373
	c33.729,0,61.169,27.44,61.169,61.169S289.729,212.71,256,212.71z"/>
<path style="opacity:0.15;enable-background:new    ;" d="M408.808,33.942C386.92,12.054,357.82,0,326.867,0
	C300.884,0,276.202,8.496,256,24.172V512c4.009,0,8.016-1.53,11.074-4.588L408.808,365.68c21.886-21.886,33.94-50.986,33.94-81.938
	v-82.914v-84.948v-0.023c0-0.002,0-0.004,0-0.007C442.739,84.909,430.689,55.821,408.808,33.942z"/>
</svg>